<svg xmlns:inkscape="http://www.inkscape.org/namespaces/inkscape" xmlns:rdf="http://www.w3.org/1999/02/22-rdf-syntax-ns#" xmlns="http://www.w3.org/2000/svg" xmlns:xlink="http://www.w3.org/1999/xlink" xmlns:ns1="http://sozi.baierouge.fr" xmlns:cc="http://creativecommons.org/ns#" xmlns:dc="http://purl.org/dc/elements/1.1/" xmlns:sodipodi="http://sodipodi.sourceforge.net/DTD/sodipodi-0.dtd" sodipodi:docname="remigho_like(paths).svg" version="1.1" inkscape:version="0.48.5 r10040" width="604.9600219726562" height="556.1699829101562"><rect id="backgroundrect" width="100%" height="100%" x="0" y="0" fill="none" stroke="none"/>
  <sodipodi:namedview id="base" fit-margin-left="0" inkscape:zoom="1.0348148" borderopacity="1.0" inkscape:current-layer="layer1" inkscape:cx="284.11867" inkscape:cy="303.59426" inkscape:window-maximized="1" showgrid="false" fit-margin-right="0" units="mm" inkscape:document-units="mm" bordercolor="#666666" inkscape:window-x="-8" inkscape:window-y="-8" fit-margin-bottom="0" inkscape:window-width="1680" inkscape:pageopacity="0.0" inkscape:pageshadow="2" pagecolor="#ffffff" inkscape:window-height="987" fit-margin-top="0"/>
  
  <metadata>
    <rdf:RDF>
      <cc:Work>
        <dc:format>image/svg+xml</dc:format>
        <dc:type rdf:resource="http://purl.org/dc/dcmitype/StillImage"/>
        <cc:license rdf:resource="http://creativecommons.org/licenses/publicdomain/"/>
        <dc:publisher>
          <cc:Agent rdf:about="http://openclipart.org/">
            <dc:title>Openclipart</dc:title>
          </cc:Agent>
        </dc:publisher>
      </cc:Work>
      <cc:License rdf:about="http://creativecommons.org/licenses/publicdomain/">
        <cc:permits rdf:resource="http://creativecommons.org/ns#Reproduction"/>
        <cc:permits rdf:resource="http://creativecommons.org/ns#Distribution"/>
        <cc:permits rdf:resource="http://creativecommons.org/ns#DerivativeWorks"/>
      </cc:License>
    </rdf:RDF>
  </metadata>
<g class="currentLayer" style=""><title>Layer 1</title><path fill="#eb1a1a" fill-opacity="1" stroke="none" stroke-opacity="1" stroke-width="1" stroke-dasharray="none" stroke-linejoin="miter" stroke-linecap="butt" stroke-dashoffset="" fill-rule="nonzero" opacity="1" marker-start="" marker-mid="" marker-end="" d="M100,206.5 C100,140.47790055248618 151.2403314917127,87 214.5,87 C277.7596685082873,87 329,140.47790055248618 329,206.5 C329,272.5220994475138 277.7596685082873,326 214.5,326 C151.2403314917127,326 100,272.5220994475138 100,206.5 Z" id="svg_1"/><path fill="#eb1a1a" fill-opacity="1" stroke="none" stroke-opacity="1" stroke-width="1" stroke-dasharray="none" stroke-linejoin="miter" stroke-linecap="butt" stroke-dashoffset="" fill-rule="nonzero" opacity="1" marker-start="" marker-mid="" marker-end="" d="M139,175.5 C139,162.51657458563537 151.30662983425415,152 166.5,152 C181.69337016574585,152 194,162.51657458563537 194,175.5 C194,188.48342541436463 181.69337016574585,199 166.5,199 C151.30662983425415,199 139,188.48342541436463 139,175.5 Z" id="svg_3"/><path fill="#eb1a1a" fill-opacity="1" stroke="none" stroke-opacity="1" stroke-width="1" stroke-dasharray="none" stroke-linejoin="miter" stroke-linecap="butt" stroke-dashoffset="" fill-rule="nonzero" opacity="1" marker-start="" marker-mid="" marker-end="" d="M128,179.5 C128,170.9364640883978 140.30662983425415,164 155.5,164 C170.69337016574585,164 183,170.9364640883978 183,179.5 C183,188.0635359116022 170.69337016574585,195 155.5,195 C140.30662983425415,195 128,188.0635359116022 128,179.5 Z" id="svg_5"/><path fill="#eb1a1a" fill-opacity="1" stroke="none" stroke-opacity="1" stroke-width="1" stroke-dasharray="none" stroke-linejoin="miter" stroke-linecap="butt" stroke-dashoffset="" fill-rule="nonzero" opacity="1" marker-start="" marker-mid="" marker-end="" d="M312,245 C312,185.88397790055248 352.5,138 402.5,138 C452.5,138 493,185.88397790055248 493,245 C493,304.1160220994475 452.5,352 402.5,352 C352.5,352 312,304.1160220994475 312,245 Z" id="svg_7"/><path fill="#eb1a1a" fill-opacity="1" stroke="none" stroke-opacity="1" stroke-width="1" stroke-dasharray="none" stroke-linejoin="miter" stroke-linecap="butt" stroke-dashoffset="" fill-rule="nonzero" opacity="1" marker-start="" marker-mid="" marker-end="" d="M313,185.5 C313,147.65469613259668 358.4226519337017,117 414.5,117 C470.5773480662983,117 516,147.65469613259668 516,185.5 C516,223.34530386740332 470.5773480662983,254 414.5,254 C358.4226519337017,254 313,223.34530386740332 313,185.5 Z" id="svg_9"/><path fill="#eb1a1a" fill-opacity="1" stroke="none" stroke-opacity="1" stroke-width="1" stroke-dasharray="none" stroke-linejoin="miter" stroke-linecap="butt" stroke-dashoffset="" fill-rule="nonzero" opacity="1" marker-start="" marker-mid="" marker-end="" d="M164,332 C164,302.7182320441989 204.5,279 254.5,279 C304.5,279 345,302.7182320441989 345,332 C345,361.2817679558011 304.5,385 254.5,385 C204.5,385 164,361.2817679558011 164,332 Z" id="svg_2"/><path fill="#eb1a1a" fill-opacity="1" stroke="none" stroke-opacity="1" stroke-width="1" stroke-dasharray="none" stroke-linejoin="miter" stroke-linecap="butt" stroke-dashoffset="" fill-rule="nonzero" opacity="1" marker-start="" marker-mid="" marker-end="" d="M241,257 C241,222.19337016574585 267.6270718232044,194 300.5,194 C333.3729281767956,194 360,222.19337016574585 360,257 C360,291.8066298342541 333.3729281767956,320 300.5,320 C267.6270718232044,320 241,291.8066298342541 241,257 Z" id="svg_6"/><path fill="#eb1a1a" fill-opacity="1" stroke="none" stroke-opacity="1" stroke-width="1" stroke-dasharray="none" stroke-linejoin="miter" stroke-linecap="butt" stroke-dashoffset="" fill-rule="nonzero" opacity="1" marker-start="" marker-mid="" marker-end="" d="M275,397 C275,380.9779005524862 286.6353591160221,368 301,368 C315.3646408839779,368 327,380.9779005524862 327,397 C327,413.0220994475138 315.3646408839779,426 301,426 C286.6353591160221,426 275,413.0220994475138 275,397 Z" id="svg_10"/><path fill="#eb1a1a" fill-opacity="1" stroke="none" stroke-opacity="1" stroke-width="1" stroke-dasharray="none" stroke-linejoin="miter" stroke-linecap="butt" stroke-dashoffset="" fill-rule="nonzero" opacity="1" marker-start="" marker-mid="" marker-end="" d="M308,382 C308,367.6353591160221 321.20165745856355,356 337.5,356 C353.79834254143645,356 367,367.6353591160221 367,382 C367,396.3646408839779 353.79834254143645,408 337.5,408 C321.20165745856355,408 308,396.3646408839779 308,382 Z" id="svg_12"/><path fill="#eb1a1a" fill-opacity="1" stroke="none" stroke-opacity="1" stroke-width="1" stroke-dasharray="none" stroke-linejoin="miter" stroke-linecap="butt" stroke-dashoffset="" fill-rule="nonzero" opacity="1" marker-start="" marker-mid="" marker-end="" d="M308,354.5 C308,325.4944751381216 331.2707182320442,302 360,302 C388.7292817679558,302 412,325.4944751381216 412,354.5 C412,383.5055248618784 388.7292817679558,407 360,407 C331.2707182320442,407 308,383.5055248618784 308,354.5 Z" id="svg_14"/><path fill="#eb1a1a" fill-opacity="1" stroke="none" stroke-opacity="1" stroke-width="1" stroke-dasharray="none" stroke-linejoin="miter" stroke-linecap="butt" stroke-dashoffset="" fill-rule="nonzero" opacity="1" marker-start="" marker-mid="" marker-end="" d="M304,145.5 C304,123.12430939226519 323.24309392265195,105 347,105 C370.75690607734805,105 390,123.12430939226519 390,145.5 C390,167.8756906077348 370.75690607734805,186 347,186 C323.24309392265195,186 304,167.8756906077348 304,145.5 Z" id="svg_16"/><path fill="#eb1a1a" fill-opacity="1" stroke="none" stroke-opacity="1" stroke-width="1" stroke-dasharray="none" stroke-linejoin="miter" stroke-linecap="butt" stroke-dashoffset="" fill-rule="nonzero" opacity="1" marker-start="" marker-mid="" marker-end="" d="M343,100.5 C343,84.75414364640883 356.42541436464086,72 373,72 C389.57458563535914,72 403,84.75414364640883 403,100.5 C403,116.24585635359117 389.57458563535914,129 373,129 C356.42541436464086,129 343,116.24585635359117 343,100.5 Z" id="svg_18"/><path fill="#eb1a1a" fill-opacity="1" stroke="none" stroke-opacity="1" stroke-width="1" stroke-dasharray="none" stroke-linejoin="miter" stroke-linecap="butt" stroke-dashoffset="" fill-rule="nonzero" opacity="1" marker-start="" marker-mid="" marker-end="" d="M417,127 C417,97.1657458563536 431.99171270718233,73 450.5,73 C469.00828729281767,73 484,97.1657458563536 484,127 C484,156.8342541436464 469.00828729281767,181 450.5,181 C431.99171270718233,181 417,156.8342541436464 417,127 Z" id="svg_4"/><path fill="#eb1a1a" fill-opacity="1" stroke="none" stroke-opacity="1" stroke-width="1" stroke-dasharray="none" stroke-linejoin="miter" stroke-linecap="butt" stroke-dashoffset="" fill-rule="nonzero" opacity="1" marker-start="" marker-mid="" marker-end="" d="M387,100 C387,90.05524861878453 400.20165745856355,82 416.5,82 C432.79834254143645,82 446,90.05524861878453 446,100 C446,109.94475138121547 432.79834254143645,118 416.5,118 C400.20165745856355,118 387,109.94475138121547 387,100 Z" id="svg_11"/><path fill="#eb1a1a" fill-opacity="1" stroke="none" stroke-opacity="1" stroke-width="1" stroke-dasharray="none" stroke-linejoin="miter" stroke-linecap="butt" stroke-dashoffset="" fill-rule="nonzero" opacity="1" marker-start="" marker-mid="" marker-end="" d="M387,119.5 C387,110.38397790055248 393.71270718232046,103 402,103 C410.28729281767954,103 417,110.38397790055248 417,119.5 C417,128.61602209944752 410.28729281767954,136 402,136 C393.71270718232046,136 387,128.61602209944752 387,119.5 Z" id="svg_15"/><path fill="#eb1a1a" fill-opacity="1" stroke="none" stroke-opacity="1" stroke-width="1" stroke-dasharray="none" stroke-linejoin="miter" stroke-linecap="butt" stroke-dashoffset="" fill-rule="nonzero" opacity="1" marker-start="" marker-mid="" marker-end="" d="M479,161.5 C479,134.15193370165747 494.21546961325964,112 513,112 C531.7845303867404,112 547,134.15193370165747 547,161.5 C547,188.84806629834253 531.7845303867404,211 513,211 C494.21546961325964,211 479,188.84806629834253 479,161.5 Z" id="svg_19"/><path fill="#eb1a1a" fill-opacity="1" stroke="none" stroke-opacity="1" stroke-width="1" stroke-dasharray="none" stroke-linejoin="miter" stroke-linecap="butt" stroke-dashoffset="" fill-rule="nonzero" opacity="1" marker-start="" marker-mid="" marker-end="" d="M459,202 C459,186.5303867403315 470.1878453038674,174 484,174 C497.8121546961326,174 509,186.5303867403315 509,202 C509,217.4696132596685 497.8121546961326,230 484,230 C470.1878453038674,230 459,217.4696132596685 459,202 Z" id="svg_21"/><path fill="#eb1a1a" fill-opacity="1" stroke="none" stroke-opacity="1" stroke-width="1" stroke-dasharray="none" stroke-linejoin="miter" stroke-linecap="butt" stroke-dashoffset="" fill-rule="nonzero" opacity="1" marker-start="" marker-mid="" marker-end="" d="M477,240 C477,221.76795580110496 489.0828729281768,207 504,207 C518.9171270718232,207 531,221.76795580110496 531,240 C531,258.23204419889504 518.9171270718232,273 504,273 C489.0828729281768,273 477,258.23204419889504 477,240 Z" id="svg_23"/><path fill="#eb1a1a" fill-opacity="1" stroke="none" stroke-opacity="1" stroke-width="1" stroke-dasharray="none" stroke-linejoin="miter" stroke-linecap="butt" stroke-dashoffset="" fill-rule="nonzero" opacity="1" marker-start="" marker-mid="" marker-end="" d="M491,210.5 C491,194.75414364640883 503.9779005524862,182 520,182 C536.0220994475138,182 549,194.75414364640883 549,210.5 C549,226.24585635359117 536.0220994475138,239 520,239 C503.9779005524862,239 491,226.24585635359117 491,210.5 Z" id="svg_25"/><path fill="#eb1a1a" fill-opacity="1" stroke="none" stroke-opacity="1" stroke-width="1" stroke-dasharray="none" stroke-linejoin="miter" stroke-linecap="butt" stroke-dashoffset="" fill-rule="nonzero" opacity="1" marker-start="" marker-mid="" marker-end="" d="M126,95.5 C126,70.91436464088397 150.1657458563536,51 180,51 C209.8342541436464,51 234,70.91436464088397 234,95.5 C234,120.08563535911603 209.8342541436464,140 180,140 C150.1657458563536,140 126,120.08563535911603 126,95.5 Z" id="svg_8"/><path fill="#eb1a1a" fill-opacity="1" stroke="none" stroke-opacity="1" stroke-width="1" stroke-dasharray="none" stroke-linejoin="miter" stroke-linecap="butt" stroke-dashoffset="" fill-rule="nonzero" opacity="1" marker-start="" marker-mid="" marker-end="" d="M70,112.5 C70,91.7817679558011 86.3342541436464,75 106.5,75 C126.6657458563536,75 143,91.7817679558011 143,112.5 C143,133.21823204419888 126.6657458563536,150 106.5,150 C86.3342541436464,150 70,133.21823204419888 70,112.5 Z" id="svg_17"/><path fill="#eb1a1a" fill-opacity="1" stroke="none" stroke-opacity="1" stroke-width="1" stroke-dasharray="none" stroke-linejoin="miter" stroke-linecap="butt" stroke-dashoffset="" fill-rule="nonzero" opacity="1" marker-start="" marker-mid="" marker-end="" d="M103,79.5 C103,60.991712707182316 125.37569060773481,46 153,46 C180.6243093922652,46 203,60.991712707182316 203,79.5 C203,98.00828729281768 180.6243093922652,113 153,113 C125.37569060773481,113 103,98.00828729281768 103,79.5 Z" id="svg_22"/><path fill="#eb1a1a" fill-opacity="1" stroke="none" stroke-opacity="1" stroke-width="1" stroke-dasharray="none" stroke-linejoin="miter" stroke-linecap="butt" stroke-dashoffset="" fill-rule="nonzero" opacity="1" marker-start="" marker-mid="" marker-end="" d="M180,110 C180,76.85082872928177 210.65469613259668,50 248.5,50 C286.34530386740335,50 317,76.85082872928177 317,110 C317,143.14917127071823 286.34530386740335,170 248.5,170 C210.65469613259668,170 180,143.14917127071823 180,110 Z" id="svg_26"/><path fill="#eb1a1a" fill-opacity="1" stroke="none" stroke-opacity="1" stroke-width="1" stroke-dasharray="none" stroke-linejoin="miter" stroke-linecap="butt" stroke-dashoffset="" fill-rule="nonzero" opacity="1" marker-start="" marker-mid="" marker-end="" d="M177,61 C177,46.0828729281768 188.6353591160221,34 203,34 C217.3646408839779,34 229,46.0828729281768 229,61 C229,75.9171270718232 217.3646408839779,88 203,88 C188.6353591160221,88 177,75.9171270718232 177,61 Z" id="svg_28"/><path fill="#eb1a1a" fill-opacity="1" stroke="none" stroke-opacity="1" stroke-width="1" stroke-dasharray="none" stroke-linejoin="miter" stroke-linecap="butt" stroke-dashoffset="" fill-rule="nonzero" opacity="1" marker-start="" marker-mid="" marker-end="" d="M313,109 C313,89.11049723756906 327.76795580110496,73 346,73 C364.23204419889504,73 379,89.11049723756906 379,109 C379,128.88950276243094 364.23204419889504,145 346,145 C327.76795580110496,145 313,128.88950276243094 313,109 Z" id="svg_31"/><path fill="#eb1a1a" fill-opacity="1" stroke="none" stroke-opacity="1" stroke-width="1" stroke-dasharray="none" stroke-linejoin="miter" stroke-linecap="butt" stroke-dashoffset="" fill-rule="nonzero" opacity="1" marker-start="" marker-mid="" marker-end="" d="M353,75 C353,61.187845303867405 375.8232044198895,50 404,50 C432.1767955801105,50 455,61.187845303867405 455,75 C455,88.8121546961326 432.1767955801105,100 404,100 C375.8232044198895,100 353,88.8121546961326 353,75 Z" id="svg_33"/><path fill="#eb1a1a" fill-opacity="1" stroke="none" stroke-opacity="1" stroke-width="1" stroke-dasharray="none" stroke-linejoin="miter" stroke-linecap="butt" stroke-dashoffset="" fill-rule="nonzero" opacity="1" marker-start="" marker-mid="" marker-end="" d="M426,97.5 C426,67.38950276243094 450.6132596685083,43 481,43 C511.3867403314917,43 536,67.38950276243094 536,97.5 C536,127.61049723756906 511.3867403314917,152 481,152 C450.6132596685083,152 426,127.61049723756906 426,97.5 Z" id="svg_35"/><path fill="#eb1a1a" fill-opacity="1" stroke="none" stroke-opacity="1" stroke-width="1" stroke-dasharray="none" stroke-linejoin="miter" stroke-linecap="butt" stroke-dashoffset="" fill-rule="nonzero" opacity="1" marker-start="" marker-mid="" marker-end="" d="M415,60 C415,43.97790055248619 425.9640883977901,31 439.5,31 C453.0359116022099,31 464,43.97790055248619 464,60 C464,76.02209944751381 453.0359116022099,89 439.5,89 C425.9640883977901,89 415,76.02209944751381 415,60 Z" id="svg_37"/><path fill="#eb1a1a" fill-opacity="1" stroke="none" stroke-opacity="1" stroke-width="1" stroke-dasharray="none" stroke-linejoin="miter" stroke-linecap="butt" stroke-dashoffset="" fill-rule="nonzero" opacity="1" marker-start="" marker-mid="" marker-end="" d="M464,157 C464,119.43093922651934 487.2707182320442,89 516,89 C544.7292817679559,89 568,119.43093922651934 568,157 C568,194.56906077348066 544.7292817679559,225 516,225 C487.2707182320442,225 464,194.56906077348066 464,157 Z" id="svg_39"/><path fill="#eb1a1a" fill-opacity="1" stroke="none" stroke-opacity="1" stroke-width="1" stroke-dasharray="none" stroke-linejoin="miter" stroke-linecap="butt" stroke-dashoffset="" fill-rule="nonzero" opacity="1" marker-start="" marker-mid="" marker-end="" d="M469,234.5 C469,208.80939226519337 487.1243093922652,188 509.5,188 C531.8756906077348,188 550,208.80939226519337 550,234.5 C550,260.19060773480663 531.8756906077348,281 509.5,281 C487.1243093922652,281 469,260.19060773480663 469,234.5 Z" id="svg_41"/><path fill="#eb1a1a" fill-opacity="1" stroke="none" stroke-opacity="1" stroke-width="1" stroke-dasharray="none" stroke-linejoin="miter" stroke-linecap="butt" stroke-dashoffset="" fill-rule="nonzero" opacity="1" marker-start="" marker-mid="" marker-end="" d="M475,294.5 C475,278.75414364640886 484.621546961326,266 496.5,266 C508.378453038674,266 518,278.75414364640886 518,294.5 C518,310.24585635359114 508.378453038674,323 496.5,323 C484.621546961326,323 475,310.24585635359114 475,294.5 Z" id="svg_43"/><path fill="#eb1a1a" fill-opacity="1" stroke="none" stroke-opacity="1" stroke-width="1" stroke-dasharray="none" stroke-linejoin="miter" stroke-linecap="butt" stroke-dashoffset="" fill-rule="nonzero" opacity="1" marker-start="" marker-mid="" marker-end="" d="M362,343 C362,322.55801104972375 392.878453038674,306 431,306 C469.121546961326,306 500,322.55801104972375 500,343 C500,363.44198895027625 469.121546961326,380 431,380 C392.878453038674,380 362,363.44198895027625 362,343 Z" id="svg_45"/><path fill="#eb1a1a" fill-opacity="1" stroke="none" stroke-opacity="1" stroke-width="1" stroke-dasharray="none" stroke-linejoin="miter" stroke-linecap="butt" stroke-dashoffset="" fill-rule="nonzero" opacity="1" marker-start="" marker-mid="" marker-end="" d="M446,298.5 C446,285.51657458563534 455.3977900552486,275 467,275 C478.6022099447514,275 488,285.51657458563534 488,298.5 C488,311.48342541436466 478.6022099447514,322 467,322 C455.3977900552486,322 446,311.48342541436466 446,298.5 Z" id="svg_47"/><path fill="#eb1a1a" fill-opacity="1" stroke="none" stroke-opacity="1" stroke-width="1" stroke-dasharray="none" stroke-linejoin="miter" stroke-linecap="butt" stroke-dashoffset="" fill-rule="nonzero" opacity="1" marker-start="" marker-mid="" marker-end="" d="M53,158 C53,137.00552486187846 70.2292817679558,120 91.5,120 C112.7707182320442,120 130,137.00552486187846 130,158 C130,178.99447513812154 112.7707182320442,196 91.5,196 C70.2292817679558,196 53,178.99447513812154 53,158 Z" id="svg_49"/><path fill="#eb1a1a" fill-opacity="1" stroke="none" stroke-opacity="1" stroke-width="1" stroke-dasharray="none" stroke-linejoin="miter" stroke-linecap="butt" stroke-dashoffset="" fill-rule="nonzero" opacity="1" marker-start="" marker-mid="" marker-end="" d="M50,188 C50,142.6961325966851 69.46685082872928,106 93.5,106 C117.53314917127072,106 137,142.6961325966851 137,188 C137,233.3038674033149 117.53314917127072,270 93.5,270 C69.46685082872928,270 50,233.3038674033149 50,188 Z" id="svg_51"/><path fill="#eb1a1a" fill-opacity="1" stroke="none" stroke-opacity="1" stroke-width="1" stroke-dasharray="none" stroke-linejoin="miter" stroke-linecap="butt" stroke-dashoffset="" fill-rule="nonzero" opacity="1" marker-start="" marker-mid="" marker-end="" d="M84,292 C84,266.03314917127074 108.38950276243094,245 138.5,245 C168.61049723756906,245 193,266.03314917127074 193,292 C193,317.96685082872926 168.61049723756906,339 138.5,339 C108.38950276243094,339 84,317.96685082872926 84,292 Z" id="svg_53"/><path fill="#eb1a1a" fill-opacity="1" stroke="none" stroke-opacity="1" stroke-width="1" stroke-dasharray="none" stroke-linejoin="miter" stroke-linecap="butt" stroke-dashoffset="" fill-rule="nonzero" opacity="1" marker-start="" marker-mid="" marker-end="" d="M65,267.5 C65,253.96408839779005 73.05524861878453,243 83,243 C92.94475138121547,243 101,253.96408839779005 101,267.5 C101,281.0359116022099 92.94475138121547,292 83,292 C73.05524861878453,292 65,281.0359116022099 65,267.5 Z" id="svg_55"/><path fill="#eb1a1a" fill-opacity="1" stroke="none" stroke-opacity="1" stroke-width="1" stroke-dasharray="none" stroke-linejoin="miter" stroke-linecap="butt" stroke-dashoffset="" fill-rule="nonzero" opacity="1" marker-start="" marker-mid="" marker-end="" d="M137,356 C137,320.08839779005524 184.4364640883978,291 243,291 C301.56353591160223,291 349,320.08839779005524 349,356 C349,391.91160220994476 301.56353591160223,421 243,421 C184.4364640883978,421 137,391.91160220994476 137,356 Z" id="svg_13"/><path fill="#eb1a1a" fill-opacity="1" stroke="none" stroke-opacity="1" stroke-width="1" stroke-dasharray="none" stroke-linejoin="miter" stroke-linecap="butt" stroke-dashoffset="" fill-rule="nonzero" opacity="1" marker-start="" marker-mid="" marker-end="" d="M178,394.5 C178,355.5497237569061 221.18508287292818,324 274.5,324 C327.8149171270718,324 371,355.5497237569061 371,394.5 C371,433.4502762430939 327.8149171270718,465 274.5,465 C221.18508287292818,465 178,433.4502762430939 178,394.5 Z" id="svg_24"/><path fill="#eb1a1a" fill-opacity="1" stroke="none" stroke-opacity="1" stroke-width="1" stroke-dasharray="none" stroke-linejoin="miter" stroke-linecap="butt" stroke-dashoffset="" fill-rule="nonzero" opacity="1" marker-start="" marker-mid="" marker-end="" d="M289,392 C289,370.45303867403317 317.64088397790056,353 353,353 C388.35911602209944,353 417,370.45303867403317 417,392 C417,413.54696132596683 388.35911602209944,431 353,431 C317.64088397790056,431 289,413.54696132596683 289,392 Z" id="svg_29"/><path fill="#eb1a1a" fill-opacity="1" stroke="none" stroke-opacity="1" stroke-width="1" stroke-dasharray="none" stroke-linejoin="miter" stroke-linecap="butt" stroke-dashoffset="" fill-rule="nonzero" opacity="1" marker-start="" marker-mid="" marker-end="" d="M258,459 C258,432.4806629834254 278.1381215469613,411 303,411 C327.8618784530387,411 348,432.4806629834254 348,459 C348,485.5193370165746 327.8618784530387,507 303,507 C278.1381215469613,507 258,485.5193370165746 258,459 Z" id="svg_32"/><path fill="#eb1a1a" fill-opacity="1" stroke="none" stroke-opacity="1" stroke-width="1" stroke-dasharray="none" stroke-linejoin="miter" stroke-linecap="butt" stroke-dashoffset="" fill-rule="nonzero" opacity="1" marker-start="" marker-mid="" marker-end="" d="M336,435 C336,423.9502762430939 343.3839779005525,415 352.5,415 C361.6160220994475,415 369,423.9502762430939 369,435 C369,446.0497237569061 361.6160220994475,455 352.5,455 C343.3839779005525,455 336,446.0497237569061 336,435 Z" id="svg_36"/><g id="layer1" inkscape:label="Calque 1" inkscape:groupmode="layer" class="selected" opacity="1">
    <path id="path18741" sodipodi:nodetypes="csscssccc" style="color:#000000;stroke:#000000;stroke-width:53.15;fill:none" inkscape:connector-curvature="0" d="m517.181999206543,306.2900390625 c37.19599914550781,-28.490999221801758 61.20000076293945,-73.36000061035156 61.20000076293945,-123.83000183105469 c0,-86.08799743652344 -69.79900360107422,-155.88999938964844 -155.88999938964844,-155.88999938964844 c-48.27199935913086,0 -91.4260025024414,21.95199966430664 -120.0199966430664,56.40700149536133 c-28.591999053955078,-34.45500183105469 -71.74600219726562,-56.40700149536133 -120.0199966430664,-56.40700149536133 c-86.08799743652344,0 -155.88999938964844,69.79900360107422 -155.88999938964844,155.88999938964844 c0,50.46900177001953 24.003000259399414,95.33799743652344 61.20000076293945,123.83000183105469 l214.72000122070312,223.3000030517578 z" opacity="1"/>
  </g></g></svg>