<svg xmlns="http://www.w3.org/2000/svg" xmlns:cc="http://web.resource.org/cc/" xmlns:ns1="http://sozi.baierouge.fr" xmlns:xlink="http://www.w3.org/1999/xlink" id="svg1" x="0" y="0" _SVGFile__filename="oldscale/devices/cam.svg" version="1.0" viewBox="0 0 60 60"><path id="path1725" fill="none" stroke="#fff" stroke-linecap="round" stroke-linejoin="round" stroke-width="8.125" d="m37.594 7.375c-1.04 0-1.875 0.8353-1.875 1.875v6.5c0 1.04 0.835 1.906 1.875 1.906h3.406v5.25h-34.438c-1.0392 0-1.8745 0.836-1.8745 1.875v25.969c0 1.04 0.8353 1.875 1.875 1.875h46.876c1.039 0 1.874-0.835 1.874-1.875v-25.969c0-1.039-0.835-1.875-1.874-1.875h-3.376v-5.25h3.376c1.039 0 1.874-0.866 1.874-1.906v-6.5c0-1.0397-0.835-1.875-1.874-1.875h-15.844zm-24.063 9.781c-2.9 0-5.2498 2.35-5.2498 5.25h10.5c0-2.9-2.35-5.25-5.25-5.25z"/><path id="rect815" fill="#fff" fill-rule="evenodd" stroke="#000" stroke-width="3.125" d="m48.621 18.16v8.358h-9.074v-8.358" transform="translate(1.438 -1.7115)"/><path id="rect816" fill="#fff" fill-rule="evenodd" stroke="#000" stroke-linecap="round" stroke-linejoin="round" stroke-width="3.125" d="m36.17 9.0852c-1.04 0-1.877 0.837-1.877 1.8768v6.515c0 1.04 0.837 1.877 1.877 1.877h15.828c1.04 0 1.877-0.837 1.877-1.877v-6.515c0-1.0398-0.837-1.8768-1.877-1.8768h-15.828z" transform="translate(1.438 -1.7115)"/><path id="path818" fill="#000" fill-rule="evenodd" stroke="#000" stroke-linecap="round" stroke-linejoin="round" stroke-width="3.125" d="m6.8312 24.13c0-2.9 2.3536-5.254 5.2538-5.254 2.9 0 5.253 2.354 5.253 5.254" transform="translate(1.438 -1.7115)"/><path id="rect810" fill="#fff" fill-rule="evenodd" stroke="#000" stroke-linecap="round" stroke-linejoin="round" stroke-width="3.125" d="m5.1259 24.607c-1.0397 0-1.8767 0.837-1.8767 1.877v25.977c0 1.04 0.837 1.877 1.8767 1.877h46.872c1.04 0 1.877-0.837 1.877-1.877v-25.977c0-1.04-0.837-1.877-1.877-1.877h-46.872z" transform="translate(1.438 -1.7115)"/><path id="path811" fill="#fff" fill-rule="evenodd" stroke="#000" stroke-linejoin="round" stroke-width="1.875" d="m39.368 39.472c0 5.965-4.841 10.806-10.806 10.806s-10.806-4.841-10.806-10.806c0-5.964 4.841-10.805 10.806-10.805s10.806 4.841 10.806 10.805z" transform="translate(1.438 -1.7115)"/><path id="path813" fill="#000" fill-rule="evenodd" stroke="#000" stroke-linejoin="round" stroke-width="1.25" d="m33.704 39.472c0 2.839-2.303 5.143-5.142 5.143s-5.142-2.304-5.142-5.143c0-2.838 2.303-5.142 5.142-5.142s5.142 2.304 5.142 5.142z" transform="translate(1.438 -1.7115)"/><metadata/></svg>